# xmcd CD database file
#
# Track frame offsets:
#	150
#	21549
#	39615
#	55898
#	72200
#	92233
#	110695
#	129249
#	150896
#	163579
#	180673
#	200322
#	216667
#	231132
#	249484
#	264620
#	280785
#	298832
#	316876
#	334176
#
# Disc length: 4657 seconds
#
# Revision: 1
# Processed by: cddbd v1.5.2PL0 Copyright (c) Steve Scherf et al.
# Submitted via: CDex 1.51
#
DISCID=2b122f14
DTITLE=Various Artist - ZPCP03
DYEAR=2010
DGENRE=Blues
TTITLE0=Lady Gaga - Alejandro
TTITLE1=Alexandra Burke - All Night Long (for Solo Females)
TTITLE2=Kylie Minogue - All The Lovers
TTITLE3=The Wanted - All Time Low
TTITLE4=Ne-Yo - Beautiful Monster
TTITLE5=The Baseballs - Bleeding Love
TTITLE6=Katy Perry - California Girls (For Solo Females)
TTITLE7=Lady Gaga - Dance In The Dark
TTITLE8=Scouting For Girls - Famous
TTITLE9=Train - Hey, Soul Sister
TTITLE10=The Baseballs - I Don't Feel Like Dancin'
TTITLE11=Boyzone - Love Is A Hurricane
TTITLE12=Eliza Doolittle - Moneybox
TTITLE13=Lady Antebellum - Need You Now
TTITLE14=Eliza Doolittle - Pack Up
TTITLE15=Olly Murs - Please Don't Let Me Go
TTITLE16=Goldfrapp - Rocket
TTITLE17=Robbie Williams and Gary Barlow - Shame (Duet Version)
TTITLE18=JLS - The Club Is Alive
TTITLE19=The Baseballs - Umbrella
EXTD=YEAR: 2010
EXTT0=
EXTT1=
EXTT2=
EXTT3=
EXTT4=
EXTT5=
EXTT6=
EXTT7=
EXTT8=
EXTT9=
EXTT10=
EXTT11=
EXTT12=
EXTT13=
EXTT14=
EXTT15=
EXTT16=
EXTT17=
EXTT18=
EXTT19=
PLAYORDER=
